# xmcd
#
# Track frame offsets:
#	150
#	13712
#	28882
#	45757
#	58032
#	73825
#	87230
#	100712
#	114845
#	129917
#	144275
#	161085
#	173392
#	184950
#	194987
#	207487
#	220012
#	232820
#	244550
#	260480
#	272305
#	290335
#
# Disc length: 4045 seconds
#
# Revision: 0
# Processed by: cddbd v1.5.1PL0 Copyright (c) Steve Scherf et al.
# Submitted via: EasyCDDAExtractor 8.0.2.1
#
DISCID=2f0fcb16
DTITLE=Ray Conniff - I Can See Clearly Now - Harmony
DYEAR=2005
DGENRE=Acapella
TTITLE0=I Can See Clearly Now
TTITLE1=If You Don't Know Me By Now
TTITLE2=It Never Rains In California
TTITLE3=Ben
TTITLE4=Summer Breeze
TTITLE5=Clair
TTITLE6=I Believe In Music
TTITLE7=If I Could Reach You
TTITLE8=Something's Wrong With Me
TTITLE9=I Am Woman
TTITLE10=I'd Love You To Want Me
TTITLE11=Harmony
TTITLE12=Playground In My Mind
TTITLE13=The Morning After
TTITLE14=Young Love
TTITLE15=Live And Let Die
TTITLE16=How Can I Tell Her
TTITLE17=Say Has Anybody Seen My Sweet Gypsy Rose
TTITLE18=Yesterday Once More
TTITLE19=Delta Dawn
TTITLE20=Touch Me In The Morning
TTITLE21=Here Today And Gone Tomorrow
EXTD=
EXTT0=
EXTT1=
EXTT2=
EXTT3=
EXTT4=
EXTT5=
EXTT6=
EXTT7=
EXTT8=
EXTT9=
EXTT10=
EXTT11=
EXTT12=
EXTT13=
EXTT14=
EXTT15=
EXTT16=
EXTT17=
EXTT18=
EXTT19=
EXTT20=
EXTT21=
PLAYORDER=
